# xmcd
#
# Track frame offsets:
#	150
#	15502
#	40819
#	48072
#	72058
#	90628
#	113024
#	123852
#	150136
#	170718
#
# Disc length: 2428 seconds
#
# Revision: 1
# Processed by: cddbd v1.5.2PL0 Copyright (c) Steve Scherf et al.
# Submitted via: audiograbber 1.83.01
#
DISCID=68097a0a
DTITLE=The Blues Orphans - Schism 'N Blues
DYEAR=2003
DGENRE=Blues
TTITLE0=Northside Boogie
TTITLE1=Three Rivers Train
TTITLE2=Hip Hop Yodel #3
TTITLE3=Little Boy Blue
TTITLE4=Tie Tye Redneck
TTITLE5=A Thousand Fish
TTITLE6=King Of The Road
TTITLE7=Midnight Preacher
TTITLE8=Straight No Chaser
TTITLE9=New MacDonald
EXTD=From Pittsburgh Pennsylvania USA
EXTT0=
EXTT1=
EXTT2=
EXTT3=
EXTT4=
EXTT5=
EXTT6=
EXTT7=
EXTT8=
EXTT9=
PLAYORDER=
